<svg width="16" height="19" viewBox="0 0 16 19" fill="none" xmlns="http://www.w3.org/2000/svg">
<path d="M8.00115 19C9.02616 19 9.85549 18.2135 9.85549 17.2414H6.1468C6.1468 18.2135 6.97613 19 8.00115 19ZM14.524 13.6977V8.39535C14.524 5.43488 12.3248 2.96047 9.3989 2.35953V1.32558C9.3989 0.592093 8.77457 0 8.00115 0C7.22773 0 6.6034 0.592093 6.6034 1.32558V2.35953C3.67745 2.96047 1.47833 5.43488 1.47833 8.39535V13.6977L0.276267 14.8377C-0.310787 15.3944 0.0992187 16.3488 0.928549 16.3488H15.0644C15.8938 16.3488 16.3131 15.3944 15.726 14.8377L14.524 13.6977Z" fill="#727981"/>
</svg>
